# xmcd CD database file
#
# Track frame offsets:
#	182
#	11595
#	24110
#	37210
#	48380
#	58882
#	72477
#	84140
#	95907
#	118875
#
# Disc length: 1745 seconds
#
# Revision: 0
# Processed by: cddbd v1.5.2PL0 Copyright (c) Steve Scherf et al.
# Submitted via: CDex 1.40Release
#
DISCID=8706cf0a
DTITLE=Clarence Carter - Slip Away And Other Hits
DYEAR=1998
DGENRE=Blues
TTITLE0=Slip Away
TTITLE1=Slipped, Tripped, And Fell In Love
TTITLE2=The Feeling Is Right
TTITLE3=Doin' Our Thing
TTITLE4=Too Weak To Fight
TTITLE5=Patches
TTITLE6=I Can't Leave Your Love Alone
TTITLE7=It's All In Your Mind
TTITLE8=Making Love (At The Dark End Of The Street)
TTITLE9=Snatching It Back
EXTD=YEAR: 1998 ID3G: 0
EXTT0=
EXTT1=
EXTT2=
EXTT3=
EXTT4=
EXTT5=
EXTT6=
EXTT7=
EXTT8=
EXTT9=
PLAYORDER=
